<?xml version="1.0" encoding="utf-8"?>
<!-- Generator: Adobe Illustrator 24.0.1, SVG Export Plug-In . SVG Version: 6.00 Build 0)  -->
<svg version="1.1" id="Шар_1" xmlns="http://www.w3.org/2000/svg" xmlns:xlink="http://www.w3.org/1999/xlink" x="0px" y="0px"
	 viewBox="0 0 58.19 34.96" style="enable-background:new 0 0 58.19 34.96;" xml:space="preserve">
<style type="text/css">
	.st0{fill:#06158E;}
</style>
<g>
	<g>
		<path class="st0" d="M48.06,30.74c-4.24,0-8.35,0-12.45,0c0,0,0,0,0,0.01c4.46,0.15,8.92,0.3,13.41,0.45c0,0.61,0,1.13,0,1.73
			c-0.24,0-0.44,0-0.65,0c-13.2,0-26.4,0-39.6,0.01c-0.62,0-1.09-0.22-1.58-0.64c1.53-0.58,3.01-1.14,4.5-1.7
			c0.68-0.26,1.36-0.54,2.06-0.75c0.28-0.08,0.67-0.11,0.91,0.02c1.95,1.13,4.03,1.34,6.24,1.16c2.2-0.19,4.42-0.18,6.64-0.27
			c0.28-0.01,0.57-0.05,0.85-0.19c-0.19,0-0.38,0.01-0.57,0c-3.32-0.11-6.64-0.15-9.96-0.36c-0.92-0.06-1.81-0.59-2.7-0.95
			c-0.1-0.04-0.13-0.34-0.12-0.52c0.22-2.82,1.22-5.34,3.02-7.53c0.03-0.04,0.06-0.09,0.11-0.12c1.02-0.75,1.24-1.74,0.9-2.9
			c-0.11-0.37,0.03-0.63,0.31-0.89c3.55-3.3,7.74-4.9,12.58-4.48c7.44,0.64,13.3,6.14,14.21,13.67c0.11,0.94,0.14,1.89,0.12,2.83
			c-0.01,0.48,0.14,0.72,0.57,0.87C47.22,30.32,47.58,30.52,48.06,30.74z M41.91,21.86c0.03-0.04,0.06-0.07,0.1-0.11
			c-0.3-0.42-0.57-0.86-0.89-1.26c-2.34-2.92-5.44-4.47-9.13-4.79c-3.67-0.32-7.02,0.56-9.86,3.02c-0.94,0.82-1.7,1.79-2.19,2.97
			c2.94-3.3,6.66-4.77,11-4.74C35.3,16.98,38.94,18.67,41.91,21.86z"/>
		<path class="st0" d="M7.25,23.8l-0.22,1.08l-1.79-0.36l0.22-1.08l-1.38-0.28c-0.42-0.08-0.79-0.21-1.12-0.36
			c-0.34-0.18-0.59-0.38-0.76-0.62c-0.2-0.25-0.32-0.54-0.36-0.87c-0.05-0.31-0.04-0.66,0.04-1.06c0.01-0.04,0.02-0.08,0.03-0.12
			c0.01-0.04,0.02-0.08,0.03-0.13c0.01-0.04,0.03-0.08,0.04-0.12C1.99,19.84,2,19.8,2.01,19.76c0.02-0.04,0.03-0.08,0.05-0.12
			c0.02-0.04,0.03-0.09,0.05-0.14c0.05-0.11,0.09-0.19,0.13-0.25l0.09-0.19l1.96,0.39l-0.32,0.36l-0.1,0.13
			c-0.01,0.02-0.03,0.06-0.07,0.12l0,0.01l0.01-0.01L3.74,20.2c-0.01,0.03-0.02,0.07-0.04,0.14c-0.03,0.13-0.03,0.24-0.01,0.33
			c0.02,0.09,0.06,0.16,0.11,0.2l0.01,0.01c0.04,0.06,0.14,0.12,0.28,0.18c0.14,0.06,0.33,0.12,0.58,0.16l1.19,0.24l0.3-1.49
			l1.79,0.36l-0.3,1.49l4.94,0.99l-0.4,1.97L7.25,23.8z"/>
		<path class="st0" d="M10.17,19.86c-0.2-0.11-0.4-0.25-0.6-0.42c-0.2-0.17-0.36-0.34-0.49-0.52c-0.15-0.19-0.27-0.39-0.38-0.61
			c-0.11-0.21-0.19-0.44-0.26-0.69c-0.06-0.22-0.09-0.46-0.12-0.72c-0.01-0.25,0-0.49,0.02-0.72c0.02-0.21,0.08-0.45,0.16-0.71
			C8.6,15.22,8.7,15,8.81,14.8c0.25-0.44,0.56-0.82,0.95-1.13c0.17-0.14,0.37-0.27,0.61-0.4c0.23-0.12,0.46-0.21,0.69-0.27
			c0.24-0.07,0.48-0.11,0.72-0.14c0.24-0.02,0.48-0.02,0.72,0.01c0.22,0.02,0.45,0.07,0.7,0.15c0.22,0.07,0.44,0.17,0.66,0.29
			c0.22,0.12,0.42,0.26,0.6,0.41c0.16,0.14,0.33,0.32,0.5,0.52c0.16,0.22,0.29,0.42,0.38,0.61c0.1,0.23,0.19,0.45,0.25,0.68
			c0.07,0.27,0.11,0.52,0.12,0.74c0.02,0.25,0.02,0.5-0.02,0.73l0,0.01c-0.04,0.24-0.09,0.48-0.16,0.71
			c-0.09,0.26-0.19,0.48-0.3,0.67s-0.25,0.39-0.41,0.6c-0.13,0.15-0.3,0.32-0.52,0.5l0,0.01c-0.2,0.16-0.4,0.3-0.61,0.4
			c-0.24,0.12-0.47,0.21-0.68,0.27c-0.25,0.07-0.49,0.12-0.72,0.14c-0.24,0.03-0.48,0.02-0.72-0.01c-0.23-0.02-0.46-0.06-0.71-0.14
			C10.59,20.06,10.36,19.96,10.17,19.86z M12.83,15.13c-0.45-0.25-0.9-0.32-1.37-0.2c-0.23,0.06-0.43,0.15-0.6,0.28
			c-0.18,0.14-0.32,0.3-0.43,0.49c-0.11,0.2-0.18,0.4-0.2,0.62c-0.01,0.21,0.01,0.43,0.08,0.66c0.08,0.24,0.19,0.44,0.33,0.61
			c0.15,0.18,0.34,0.33,0.56,0.46c0.23,0.13,0.45,0.21,0.68,0.24c0.24,0.04,0.47,0.02,0.69-0.04c0.24-0.06,0.44-0.15,0.6-0.28
			c0.17-0.12,0.31-0.28,0.43-0.49c0.12-0.21,0.18-0.41,0.2-0.62c0.02-0.21,0-0.43-0.08-0.66c-0.07-0.23-0.18-0.43-0.33-0.6
			C13.25,15.41,13.07,15.26,12.83,15.13z"/>
		<path class="st0" d="M14.69,8.49c0.04-0.51,0.25-0.94,0.62-1.31c0.04-0.04,0.09-0.08,0.13-0.12c0.35-0.29,0.76-0.48,1.26-0.57
			l0.54,1.83c-0.23,0.02-0.41,0.04-0.55,0.06c-0.14,0.02-0.3,0.11-0.49,0.27c-0.28,0.24-0.39,0.51-0.32,0.83
			c0.05,0.24,0.18,0.51,0.37,0.8c0.2,0.29,0.39,0.54,0.57,0.75l1.97,2.33l-1.54,1.29L12.82,9.4l1.54-1.29L14.69,8.49z"/>
		<path class="st0" d="M21.25,8.26c0.49,0.79,1.17,0.99,2.06,0.61l0.03-0.01c0.67-0.3,1.01-0.88,1.02-1.75l1.87,0.16
			c-0.02,0.22-0.05,0.42-0.08,0.59c-0.03,0.18-0.08,0.37-0.16,0.58c-0.12,0.34-0.28,0.64-0.47,0.9c-0.39,0.53-0.93,0.95-1.63,1.25
			c-1,0.43-1.94,0.47-2.8,0.11c-0.87-0.36-1.52-1.04-1.96-2.05c-0.42-0.97-0.46-1.91-0.12-2.82c0.34-0.9,0.99-1.57,1.96-1.98
			c1-0.43,1.92-0.48,2.75-0.15c0.45,0.18,0.83,0.46,1.14,0.82c0.31,0.36,0.57,0.77,0.76,1.23l0.22,0.51L21.25,8.26z M23.28,5.71
			c-0.21-0.24-0.46-0.37-0.73-0.38C22.28,5.31,22,5.37,21.71,5.49c-0.38,0.17-0.64,0.38-0.78,0.64l-0.01,0
			c-0.1,0.2-0.15,0.41-0.14,0.65L23.28,5.71z"/>
		<path class="st0" d="M27.92,8.84l0.73-6.83l1.91,0.2L30.5,2.73c0.18-0.14,0.38-0.26,0.6-0.36c0.23-0.09,0.46-0.15,0.7-0.18
			c0.24-0.03,0.5-0.03,0.77,0c0.26,0.03,0.51,0.08,0.73,0.16c0.23,0.09,0.43,0.21,0.6,0.34c0.17,0.13,0.32,0.3,0.45,0.5
			c0.02,0.04,0.06,0.11,0.12,0.23c0.13-0.11,0.23-0.18,0.29-0.23c0.22-0.16,0.44-0.27,0.65-0.36c0.21-0.09,0.44-0.15,0.7-0.18
			c0.24-0.03,0.49-0.03,0.75,0c0.23,0.02,0.44,0.07,0.63,0.14c0.18,0.06,0.36,0.14,0.55,0.25c0.18,0.12,0.33,0.24,0.44,0.37
			c0.13,0.15,0.24,0.31,0.31,0.49c0.03,0.06,0.06,0.15,0.1,0.29c0.02,0.1,0.04,0.2,0.05,0.32c0.01,0.14,0.01,0.27,0.01,0.39
			c-0.01,0.19-0.02,0.35-0.04,0.49L38.4,9.96l-2-0.21l0.37-3.5c0.04-0.41,0.06-0.75,0.05-1.01c-0.02-0.23-0.05-0.41-0.1-0.52
			c-0.05-0.09-0.13-0.16-0.23-0.22c-0.13-0.06-0.28-0.11-0.46-0.13c-0.24-0.03-0.45-0.01-0.62,0.04c-0.16,0.05-0.29,0.14-0.4,0.27
			c-0.13,0.15-0.22,0.35-0.29,0.61c-0.09,0.28-0.16,0.65-0.21,1.09l-0.33,3.14L32.16,9.3l0.37-3.5c0.04-0.38,0.05-0.7,0.03-0.94
			c-0.01-0.22-0.05-0.4-0.11-0.55c-0.06-0.11-0.14-0.19-0.23-0.26c-0.12-0.07-0.27-0.11-0.46-0.13c-0.12-0.01-0.24-0.01-0.34,0.01
			C31.34,3.92,31.24,3.95,31.11,4c-0.1,0.04-0.19,0.1-0.27,0.16c-0.09,0.06-0.16,0.14-0.22,0.22c-0.04,0.05-0.07,0.11-0.11,0.18
			c-0.04,0.08-0.07,0.16-0.09,0.25c-0.03,0.12-0.06,0.25-0.08,0.41c-0.02,0.12-0.05,0.36-0.09,0.71l-0.33,3.14L27.92,8.84z"/>
		<path class="st0" d="M40.74,7.09c0.13-0.19,0.29-0.38,0.48-0.55c0.19-0.18,0.38-0.33,0.57-0.44c0.2-0.13,0.41-0.24,0.64-0.32
			c0.22-0.09,0.46-0.15,0.71-0.19c0.22-0.03,0.47-0.05,0.73-0.05c0.25,0.01,0.49,0.04,0.71,0.09c0.21,0.04,0.44,0.12,0.69,0.23
			c0.24,0.11,0.46,0.23,0.64,0.36c0.42,0.29,0.76,0.64,1.03,1.05c0.12,0.18,0.23,0.4,0.34,0.64c0.1,0.25,0.17,0.48,0.21,0.71
			c0.04,0.25,0.07,0.49,0.07,0.73c0,0.24-0.03,0.48-0.08,0.71c-0.04,0.21-0.11,0.44-0.21,0.68c-0.09,0.21-0.21,0.42-0.35,0.62
			c-0.14,0.21-0.3,0.39-0.47,0.56c-0.16,0.15-0.35,0.3-0.57,0.45c-0.23,0.14-0.44,0.25-0.64,0.32c-0.23,0.08-0.47,0.14-0.7,0.18
			c-0.28,0.05-0.53,0.06-0.75,0.05c-0.25,0-0.5-0.03-0.73-0.09l-0.01,0c-0.24-0.06-0.47-0.14-0.69-0.23
			c-0.25-0.12-0.46-0.24-0.64-0.36c-0.18-0.13-0.37-0.28-0.56-0.47c-0.14-0.15-0.29-0.33-0.45-0.56l-0.01,0
			c-0.14-0.22-0.26-0.43-0.34-0.64c-0.1-0.25-0.17-0.49-0.2-0.71c-0.05-0.26-0.07-0.5-0.07-0.73c0-0.25,0.02-0.48,0.08-0.71
			c0.04-0.22,0.11-0.45,0.21-0.69C40.5,7.48,40.62,7.27,40.74,7.09z M45.19,10.2c0.29-0.42,0.4-0.87,0.33-1.35
			c-0.04-0.23-0.11-0.44-0.22-0.63c-0.12-0.19-0.27-0.35-0.45-0.47c-0.18-0.13-0.38-0.21-0.6-0.26c-0.21-0.03-0.43-0.03-0.66,0.02
			c-0.24,0.05-0.46,0.14-0.64,0.27c-0.19,0.13-0.36,0.31-0.51,0.52c-0.15,0.21-0.25,0.43-0.3,0.65c-0.06,0.23-0.07,0.46-0.03,0.69
			c0.03,0.24,0.11,0.45,0.22,0.63c0.1,0.18,0.25,0.33,0.45,0.47c0.2,0.14,0.39,0.22,0.6,0.26c0.2,0.04,0.43,0.04,0.66-0.02
			c0.23-0.05,0.44-0.14,0.63-0.27C44.87,10.58,45.04,10.41,45.19,10.2z"/>
		<path class="st0" d="M51.81,13.39c0.5,0.1,0.91,0.36,1.23,0.78c0.04,0.05,0.07,0.1,0.1,0.15c0.25,0.38,0.39,0.82,0.42,1.32
			l-1.88,0.31c0.01-0.23,0.01-0.41,0.01-0.55c-0.01-0.14-0.08-0.31-0.21-0.51c-0.2-0.31-0.46-0.45-0.78-0.42
			c-0.25,0.02-0.53,0.11-0.84,0.27c-0.31,0.16-0.58,0.32-0.82,0.47l-2.56,1.66l-1.1-1.68l5.77-3.76l1.1,1.68L51.81,13.39z"/>
		<path class="st0" d="M51.8,19.72c-0.85,0.38-1.13,1.04-0.86,1.96l0.01,0.03c0.21,0.7,0.75,1.12,1.61,1.23l-0.4,1.84
			c-0.21-0.05-0.41-0.1-0.58-0.15c-0.17-0.05-0.36-0.13-0.56-0.23c-0.32-0.16-0.6-0.36-0.83-0.58c-0.48-0.46-0.82-1.05-1.04-1.77
			c-0.3-1.05-0.22-1.98,0.24-2.79c0.46-0.82,1.22-1.38,2.28-1.68c1.02-0.3,1.95-0.22,2.81,0.23c0.85,0.45,1.43,1.18,1.72,2.19
			c0.3,1.05,0.24,1.96-0.2,2.74c-0.24,0.42-0.56,0.76-0.95,1.03c-0.4,0.26-0.84,0.46-1.31,0.6l-0.53,0.15L51.8,19.72z M54.08,22.06
			c0.27-0.18,0.42-0.41,0.47-0.68c0.05-0.27,0.03-0.55-0.06-0.85c-0.12-0.4-0.3-0.68-0.54-0.85l0-0.01
			c-0.18-0.12-0.39-0.2-0.63-0.22L54.08,22.06z"/>
	</g>
</g>
</svg>
